<svg id="Layer_1" data-name="Layer 1" xmlns="http://www.w3.org/2000/svg" xmlns:xlink="http://www.w3.org/1999/xlink" viewBox="0 0 600 671.86"><defs><style>.cls-1{fill:url(#linear-gradient);}.cls-2{fill:url(#linear-gradient-2);}.cls-3{fill:url(#linear-gradient-3);}.cls-4{fill:url(#linear-gradient-4);}.cls-5{fill:#0086c9;}</style><linearGradient id="linear-gradient" x1="1072.05" y1="719.26" x2="1236.29" y2="440.23" gradientUnits="userSpaceOnUse"><stop offset="0" stop-color="#ee0278" stop-opacity="0.9"/><stop offset="1" stop-color="#e72429" stop-opacity="0.9"/></linearGradient><linearGradient id="linear-gradient-2" x1="875.38" y1="429.27" x2="1072.81" y2="887.49" gradientUnits="userSpaceOnUse"><stop offset="0" stop-color="#279200" stop-opacity="0.9"/><stop offset="1" stop-color="#f8ec1d" stop-opacity="0.9"/></linearGradient><linearGradient id="linear-gradient-3" x1="727.77" y1="535.52" x2="981.93" y2="816.54" gradientUnits="userSpaceOnUse"><stop offset="0" stop-color="#27a8e0" stop-opacity="0.9"/><stop offset="1" stop-color="#83c5f1" stop-opacity="0.9"/></linearGradient><linearGradient id="linear-gradient-4" x1="967.23" y1="745.5" x2="1007.64" y2="318.75" gradientUnits="userSpaceOnUse"><stop offset="0" stop-color="#f8ec1d" stop-opacity="0.9"/><stop offset="1" stop-color="#e72429" stop-opacity="0.9"/></linearGradient></defs><title>my-virtuos-logo</title><path class="cls-1" d="M881,862.8c237.85-156.46,345.46-338.74,292.48-476.49,91.54,28.4,105.49,125.56,64.9,223.4-47.35,114.13-165.27,236.5-278.48,313.68,0,0-34.34-23.67-49.57-36.46C903.09,880.83,881,862.8,881,862.8Z" transform="translate(-660 -251.57)"/><path class="cls-2" d="M1150.24,750C982.69,513.85,804.73,414.68,664.7,471.89c19.67-83.39,119.21-114.2,212.91-76.3,134.09,54.24,198.24,114.35,330.28,273.81C1207.89,669.4,1183.16,711,1150.24,750Z" transform="translate(-660 -251.57)"/><path class="cls-3" d="M1038.91,862.73C801.06,706.28,693.84,524.88,746.82,387.13c-91.54,28.4-106,124.75-65.36,222.59,47.35,114.13,165.27,236.5,278.48,313.68-1,.92,26.13-18.39,39.78-28.85C1025.22,875,1038.91,862.73,1038.91,862.73Z" transform="translate(-660 -251.57)"/><path class="cls-4" d="M769.76,750.16c167.55-236.13,345.64-336,485.67-278.74-25.94-92.46-113.93-106.33-206.26-75.75-137.31,45.47-275.64,183-337,274C712.16,669.72,736.75,711.19,769.76,750.16Z" transform="translate(-660 -251.57)"/><path class="cls-5" d="M674.13,256h36.43v13.87H711c3.06-5.41,11.52-18.33,36-18.33,11.52,0,27.27,4,37.61,23.27,8-12.69,21.39-23.27,41.37-23.27,9.17,0,23.74,2.12,34.32,13.16,12.22,12.93,14.1,21.62,14.1,50.53v71.22h-39V317.15c0-10.58,0-28.91-20-28.91-21.62,0-21.62,19.74-21.62,27v71.22h-39v-71c0-7.05,0-27.27-19.51-27.27-22.09,0-22.09,21.15-22.09,28.91v69.34h-39Z" transform="translate(-660 -251.57)"/><path class="cls-5" d="M1017.77,256,952.42,430H911.06l20.68-50.06L883.32,256h41.6L951,331.72h.47L976.4,256Z" transform="translate(-660 -251.57)"/></svg>